<?xml version="1.0" encoding="iso-8859-1"?>
<!-- Generator: Adobe Illustrator 19.0.0, SVG Export Plug-In . SVG Version: 6.00 Build 0)  -->
<svg version="1.1" id="Layer_1" xmlns="http://www.w3.org/2000/svg" xmlns:xlink="http://www.w3.org/1999/xlink" x="0px" y="0px"
	 viewBox="0 0 502 502" style="enable-background:new 0 0 502 502;" xml:space="preserve">
<g>
	<g>
		<g>
			<path d="M472.289,212.904c4.17,0,7.901-2.587,9.364-6.491c1.463-3.905,0.35-8.307-2.793-11.047L257.571,2.461
				c-3.766-3.282-9.377-3.282-13.143,0L23.14,195.367c-3.143,2.74-4.256,7.142-2.793,11.047c1.463,3.904,5.194,6.491,9.364,6.491
				h12.602v240.711H30.236c-5.522,0-10,4.477-10,10V492c0,5.523,4.478,10,10,10h440.476c5.522,0,10-4.477,10-10v-28.384
				c0-5.523-4.478-10-10-10h-11.024V212.904H472.289z M56.4,192.904L251,23.265l194.6,169.639L56.4,192.904L56.4,192.904z
				 M439.687,212.904v240.711h-36.769V212.904H439.687z M382.919,212.904v240.711h-36.768V212.904H382.919z M307.767,344.284
				c-5.522,0-10,4.477-10,10v99.331h-8.384V212.904h36.768v240.711h-8.384v-99.331C317.767,348.761,313.29,344.284,307.767,344.284z
				 M269.384,212.904v240.711h-36.768V212.904H269.384z M212.617,212.904v240.711h-36.768V212.904H212.617z M155.849,212.904
				v240.711h-36.768V212.904H155.849z M80.697,302.234c-5.522,0-10,4.477-10,10v141.381h-8.385V212.904h36.769v240.711h-8.384
				V312.234C90.697,306.711,86.219,302.234,80.697,302.234z M460.712,473.615V482H40.236v-8.384H460.712z"/>
			<path d="M192.129,154.533h-30.604l96.046-83.726c4.163-3.629,4.596-9.946,0.967-14.109c-3.629-4.163-9.946-4.595-14.109-0.967
				L128.265,156.995c-3.143,2.74-4.256,7.142-2.793,11.047c1.462,3.904,5.194,6.491,9.364,6.491h57.293c5.522,0,10-4.477,10-10
				S197.651,154.533,192.129,154.533z"/>
			<path d="M373.735,156.996l-36.182-31.541c-4.164-3.628-10.479-3.197-14.109,0.967c-3.629,4.164-3.196,10.48,0.967,14.109
				l36.182,31.541c1.896,1.652,4.236,2.462,6.567,2.462c2.789,0,5.564-1.161,7.542-3.429
				C378.331,166.942,377.898,160.624,373.735,156.996z"/>
			<path d="M310.138,101.557l-15.992-13.941c-4.163-3.628-10.479-3.197-14.109,0.967c-3.629,4.162-3.196,10.479,0.967,14.109
				l15.992,13.941c1.896,1.652,4.236,2.462,6.567,2.462c2.789,0,5.564-1.161,7.542-3.429
				C314.734,111.503,314.301,105.187,310.138,101.557z"/>
			<path d="M263.615,122.471h-25.23c-5.523,0-10,4.477-10,10c0,5.523,4.478,10,10,10h25.23c5.522,0,10-4.477,10-10
				C273.615,126.947,269.137,122.471,263.615,122.471z"/>
			<path d="M317.767,304.877c0-5.523-4.478-10-10-10c-5.522,0-10,4.477-10,10v13.666c0,5.523,4.478,10,10,10c5.522,0,10-4.477,10-10
				V304.877z"/>
		</g>
	</g>
</g>
<g>
</g>
<g>
</g>
<g>
</g>
<g>
</g>
<g>
</g>
<g>
</g>
<g>
</g>
<g>
</g>
<g>
</g>
<g>
</g>
<g>
</g>
<g>
</g>
<g>
</g>
<g>
</g>
<g>
</g>
</svg>
